<?xml version="1.0" encoding="UTF-8" standalone="no"?>
<svg
   version="1.1"
   viewBox="-5 -10 68.117416 67.94464"
   id="svg2"
   sodipodi:docname="SvgConvert.ico.svg"
   inkscape:version="1.3.2 (091e20e, 2023-11-25, custom)"
   width="68.117416"
   height="67.944641"
   inkscape:export-filename="noun-line-chart-6753207-work.png"
   inkscape:export-xdpi="360.78879"
   inkscape:export-ydpi="360.78879"
   xmlns:inkscape="http://www.inkscape.org/namespaces/inkscape"
   xmlns:sodipodi="http://sodipodi.sourceforge.net/DTD/sodipodi-0.dtd"
   xmlns="http://www.w3.org/2000/svg"
   xmlns:svg="http://www.w3.org/2000/svg">
  <defs
     id="defs2">
    <symbol
       id="DownArrow">
      <title
         id="title284">Down Arrow</title>
      <path
         d="M 36,63 14,41 V 26 L 30,42 V 10 H 42 V 42 L 58,26 v 15 z"
         style="stroke:none"
         id="path284" />
    </symbol>
    <symbol
       id="FirstAid_Inv">
      <title
         id="title30">First Aid</title>
      <rect
         x="0.5"
         y="0.5"
         width="71"
         height="71"
         ry="6"
         style="stroke:#ffffff"
         id="rect30" />
      <path
         d="M 44,13 V 28 H 59 V 44 H 44 V 59 H 28 V 44 H 13 V 28 H 28 V 13 Z"
         style="fill:#ffffff;stroke:none"
         id="path31" />
    </symbol>
  </defs>
  <sodipodi:namedview
     id="namedview2"
     pagecolor="#505050"
     bordercolor="#eeeeee"
     borderopacity="1"
     inkscape:showpageshadow="0"
     inkscape:pageopacity="0"
     inkscape:pagecheckerboard="0"
     inkscape:deskcolor="#505050"
     inkscape:zoom="23.151201"
     inkscape:cx="32.201354"
     inkscape:cy="35.505718"
     inkscape:window-width="2347"
     inkscape:window-height="1856"
     inkscape:window-x="929"
     inkscape:window-y="130"
     inkscape:window-maximized="0"
     inkscape:current-layer="svg2"
     showguides="true" />
  <g
     id="g1"
     transform="translate(0,20)">
    <rect
       x="8.8076916"
       y="50.101807"
       width="62.692307"
       height="21.398191"
       ry="6"
       style="fill:#dfb920;fill-opacity:1;stroke:none"
       id="SvgBackground"
       transform="matrix(1.068091,0,0,1.3279346,-13.829252,-75.667292)" />
    <path
       d="M -1.7084875,8.1562153 4.2014669,7.7859862 q 0.1919712,1.4397806 0.7815946,2.1939507 0.9598534,1.2203841 2.7424381,1.2203841 1.3300839,0 2.0431181,-0.617047 0.7267463,-0.6307621 0.7267463,-1.4534927 0,-0.7815954 -0.6856104,-1.3986439 Q 9.1241442,7.1140888 6.6285243,6.5656012 2.5422917,5.6468842 0.80084369,4.124831 -0.95431742,2.6027779 -0.95431742,0.24428102 q 0,-1.54947772 0.89129297,-2.92069722 0.90500404,-1.3849313 2.70130135,-2.1665258 1.8100093,-0.7953069 4.9501006,-0.7953069 3.8531275,0 5.8688195,1.4397795 2.029403,1.4260682 2.413345,4.55244789 L 10.015437,0.69678336 Q 9.7823286,-0.66072376 9.0281586,-1.2777723 8.2876994,-1.8948209 6.9713295,-1.8948209 q -1.0832628,0 -1.6317504,0.4662145 -0.5484877,0.45250234 -0.5484877,1.11068754 0,0.4799267 0.4525017,0.8638681 0.4387903,0.39765356 2.0842532,0.74045836 4.0725217,0.8775802 5.8276817,1.7825848 1.768873,0.8912923 2.564179,2.2213748 0.80902,1.3300827 0.80902,2.9755455 0,1.9334193 -1.069551,3.5651693 -1.069551,1.631752 -2.989258,2.481907 -1.919705,0.836444 -4.840404,0.836444 -5.1283591,0 -7.10291404,-1.974556 Q -1.4479559,11.200321 -1.7084875,8.1562153 Z M 17.66684,-5.2954447 h 6.499576 L 28.691441,9.170917 33.147903,-5.2954447 H 39.45551 L 31.996079,14.806627 H 25.263392 Z M 50.644657,7.5254545 V 3.3432362 h 9.598535 v 8.5701198 q -2.756152,1.878569 -4.881541,2.564179 -2.111677,0.671898 -5.018662,0.671898 -3.578882,0 -5.841393,-1.220385 -2.248799,-1.220385 -3.496609,-3.63373 -1.234098,-2.4133466 -1.234098,-5.5397262 0,-3.2909257 1.357508,-5.71798356 1.357507,-2.44076984 3.976536,-3.70229154 2.043116,-0.9735656 5.498587,-0.9735656 3.332063,0 4.977526,0.6033368 1.659175,0.6033358 2.742438,1.8785697 1.096976,1.2615215 1.645464,3.20865264 L 53.97672,1.1218613 q -0.37023,-1.13811186 -1.261521,-1.74144846 -0.877582,-0.60333634 -2.2488,-0.60333634 -2.043116,0 -3.263501,1.42606788 -1.206673,1.41235582 -1.206673,4.48388652 0,3.2635015 1.220384,4.6621444 1.234098,1.3986447 3.428048,1.3986447 1.042126,0 1.988268,-0.301668 0.946141,-0.301669 2.166527,-1.0284149 V 7.5254545 Z"
       id="SvgText"
       style="font-weight:900;font-size:29.3333px;font-family:Arial;-inkscape-font-specification:'Arial, Heavy';fill:#181818;fill-opacity:1;stroke-width:2.8874"
       aria-label="SVG" />
  </g>
  <path
     d="m 31.24827,4.7767953 -8.607271,8.6072727 c -0.293127,0.293127 -0.719494,0.379733 -1.105889,0.219845 -0.386394,-0.159896 -0.626226,-0.519635 -0.626226,-0.939339 V 8.9471919 c 0,-0.5529438 -0.446352,-1.0126193 -1.005958,-1.0126193 -3.670748,-0.033314 -4.730002,-0.073283 -8.893737,-0.1065973 -5.0164677,-0.046643 -7.7967666,1.1045582 -9.5088946,3.0498537 -1.5047875,0.166752 -2.8160685,0.7959 -3.9510621,2.188157 C -2.4362683,1.1498023 8.2178213,0.11340807 19.889602,0.17336607 c 0.279803,0 0.519635,-0.09992 0.719494,-0.293127 0.199859,-0.199859 0.299788,-0.439691 0.299788,-0.719494 V -4.5433139 c 0,-0.419704 0.239832,-0.77945 0.626226,-0.939337 0.386395,-0.159896 0.812762,-0.07994 1.105889,0.219843 L 31.24827,3.337804 c 0.393056,0.3997175 0.393056,1.0459296 0,1.4389861 z"
     id="path1"
     style="stroke-width:0.666197;fill:#e41010;fill-opacity:1;stroke:none;stroke-opacity:1"
     sodipodi:nodetypes="cssssccccccsssccsc" />
  <path
     d="m 46.902651,42.181396 c -4.157073,-0.03331 -5.216326,-0.07328 -8.887076,-0.106597 -0.559605,-0.0066 -1.005958,-0.459677 -1.005958,-1.012621 v -3.710719 c 0,-0.419704 -0.239831,-0.779452 -0.626226,-0.93934 -0.386394,-0.159896 -0.812761,-0.07994 -1.105888,0.219846 l -8.613933,8.593948 c -0.393057,0.399718 -0.393057,1.039267 0,1.438987 l 8.607272,8.600609 c 0.293126,0.29979 0.719493,0.386396 1.105888,0.219846 0.386394,-0.159879 0.626226,-0.519634 0.626226,-0.939338 V 50.84862 c 0,-0.279802 0.09992,-0.519634 0.299788,-0.719492 0.19986,-0.199859 0.43969,-0.29979 0.726155,-0.293127 11.665119,0.0533 22.335341,-0.78328 22.385848,-12.542237 -1.229244,1.349249 -2.655603,1.869102 -4.103777,2.003905 -1.712127,1.945297 -4.38519,2.930356 -9.408319,2.883722 z"
     id="path1-0"
     style="stroke-width:0.666197;fill:#e41010;fill-opacity:1;stroke:none;stroke-opacity:1"
     sodipodi:nodetypes="scssscccccssscccss" />
</svg>
